<svg xmlns="http://www.w3.org/2000/svg" xmlns:xlink="http://www.w3.org/1999/xlink" viewBox="0,0,256,256" width="80px" height="80px" fill-rule="nonzero"><g transform=""><g fill="#2c3333" fill-rule="nonzero" stroke="#2c3333" stroke-width="12.8" stroke-linecap="butt" stroke-linejoin="round" stroke-miterlimit="10" stroke-dasharray="" stroke-dashoffset="0" font-family="none" font-weight="none" font-size="none" text-anchor="none" style="mix-blend-mode: normal"><path d="M227.2,47.36l22.4,22.4l-163.84,164.48l-79.36,-79.36l22.4,-22.4l56.96,56.96z" id="strokeMainSVG"></path></g><g fill="none" fill-rule="nonzero" stroke="none" stroke-width="1" stroke-linecap="butt" stroke-linejoin="miter" stroke-miterlimit="10" stroke-dasharray="" stroke-dashoffset="0" font-family="none" font-weight="none" font-size="none" text-anchor="none" style="mix-blend-mode: normal"><g transform="translate(0,12.8) scale(6.4,6.4)"><path d="M1.7,22.2l2.8,-2.8l8.9,8.9l22.1,-22.2l2.8,2.8l-24.9,25z" fill="#f8fff8"></path><path d="M35.5,6.9l2.1,2.1l-24.2,24.1l-11,-10.9l2.1,-2.1l8.2,8.2l0.7,0.7l0.7,-0.7l21.4,-21.4M35.5,5.4l-22.1,22.2l-8.9,-8.9l-3.5,3.5l12.4,12.4l25.6,-25.7l-3.5,-3.5z" fill="#ffffff"></path></g></g></g></svg>